STARTFONT 2.1
FONT -WRI-Mathematica5Mono-Medium-R-Normal--16-160-75-75-M-90-Adobe-FontSpecific
SIZE 16 75 75
FONTBOUNDINGBOX 48 33 -1 -13
STARTPROPERTIES 16
FOUNDRY "WRI"
FAMILY_NAME "Mathematica5Mono"
WEIGHT_NAME "Medium"
SLANT "R"
SETWIDTH_NAME "Normal"
PIXEL_SIZE 16
POINT_SIZE 160
RESOLUTION_X 75
RESOLUTION_Y 75
SPACING "M"
AVERAGE_WIDTH 90
CHARSET_REGISTRY "Adobe"
CHARSET_ENCODING "FontSpecific"
FONT_DESCENT 13
FONT_ASCENT 20
DEFAULT_CHAR 32
ENDPROPERTIES
CHARS 228
STARTCHAR Villa
ENCODING 1
SWIDTH 627 0
DWIDTH 10 0
BBX 9 14 1 -3
BITMAP
0a00
1700
3f00
4100
fd00
5980
5d00
5500
5600
3e00
1c00
3c00
3c00
5400
ENDCHAR
STARTCHAR Kooz
ENCODING 2
SWIDTH 746 0
DWIDTH 12 0
BBX 12 13 0 -2
BITMAP
3d00
7700
2280
3380
3f80
6dc0
7e30
a1e0
e060
6090
6010
60d0
0060
ENDCHAR
STARTCHAR Andy
ENCODING 3
SWIDTH 1000 0
DWIDTH 16 0
BBX 12 12 1 0
BITMAP
c000
8200
0200
c200
ffe0
c640
cf80
c180
c180
8600
4830
07c0
ENDCHAR
STARTCHAR Spooky
ENCODING 4
SWIDTH 535 0
DWIDTH 9 0
BBX 9 10 0 0
BITMAP
4100
6300
3700
3b00
7e80
fe00
4b80
7f00
6a00
0200
ENDCHAR
STARTCHAR space
ENCODING 32
SWIDTH 263 0
DWIDTH 4 0
BBX 0 0 0 0
BITMAP
ENDCHAR
STARTCHAR BckspcKey
ENCODING 33
SWIDTH 1981 0
DWIDTH 32 0
BBX 30 12 1 -2
BITMAP
fffffffc
80000004
b992ce64
a55529d4
a5190984
b9188e84
a5186884
a5352894
a55528d4
b9d2c864
80000004
fffffffc
ENDCHAR
STARTCHAR HomeKey
ENCODING 34
SWIDTH 1603 0
DWIDTH 26 0
BBX 24 12 1 -2
BITMAP
ffffff
800001
800001
a2c8fd
a32ce1
bd2cfd
a32d61
a32b61
a32b61
a2ca7d
800001
ffffff
ENDCHAR
STARTCHAR PgupKey
ENCODING 35
SWIDTH 1444 0
DWIDTH 23 0
BBX 21 12 1 -2
BITMAP
fffff8
800008
b992c8
aa52a8
ae12a8
bad2e8
a25288
a25288
a15288
a1cc88
800008
fffff8
ENDCHAR
STARTCHAR PgdwnKey
ENCODING 36
SWIDTH 1999 0
DWIDTH 32 0
BBX 30 12 1 -2
BITMAP
fffffffc
80000004
b19d2314
aa52b394
aa12b554
bad1b554
a251ad54
a252cd34
a2524934
a1dc4914
80000004
fffffffc
ENDCHAR
STARTCHAR EndKey
ENCODING 37
SWIDTH 1187 0
DWIDTH 19 0
BBX 17 12 1 -2
BITMAP
ffff80
800080
800080
ba5c80
a35280
bad280
a2d280
a2d280
ba5c80
800080
800080
ffff80
ENDCHAR
STARTCHAR FilledHeart
ENCODING 38
SWIDTH 605 0
DWIDTH 10 0
BBX 8 9 1 0
BITMAP
e7
ff
ff
ff
ff
7e
3c
18
08
ENDCHAR
STARTCHAR Euro
ENCODING 39
SWIDTH 600 0
DWIDTH 10 0
BBX 8 9 0 0
BITMAP
1d
23
41
fc
40
fc
40
23
1c
ENDCHAR
STARTCHAR CapitalOE
ENCODING 40
SWIDTH 600 0
DWIDTH 10 0
BBX 9 9 0 0
BITMAP
3f80
4880
4880
8a00
8e00
8800
8880
4880
3f80
ENDCHAR
STARTCHAR OE
ENCODING 41
SWIDTH 600 0
DWIDTH 10 0
BBX 9 8 0 0
BITMAP
6300
5500
8880
8880
8f80
8800
5400
6380
ENDCHAR
STARTCHAR ABar
ENCODING 42
SWIDTH 600 0
DWIDTH 10 0
BBX 8 9 1 0
BITMAP
7e
3c
46
02
3e
c2
82
86
7b
ENDCHAR
STARTCHAR ACup
ENCODING 43
SWIDTH 600 0
DWIDTH 10 0
BBX 8 10 1 0
BITMAP
3c
00
3c
46
02
3e
c2
82
86
7b
ENDCHAR
STARTCHAR CapitalABar
ENCODING 44
SWIDTH 600 0
DWIDTH 10 0
BBX 9 11 0 0
BITMAP
3e00
0800
3800
0c00
1400
1200
2200
3e00
4100
4100
e380
ENDCHAR
STARTCHAR CapitalACup
ENCODING 45
SWIDTH 600 0
DWIDTH 10 0
BBX 9 12 0 0
BITMAP
2200
1c00
0800
3800
0c00
1400
1200
2200
3e00
4100
4100
e380
ENDCHAR
STARTCHAR CAcute
ENCODING 46
SWIDTH 600 0
DWIDTH 10 0
BBX 8 11 1 0
BITMAP
04
08
10
00
3d
42
81
80
80
42
3c
ENDCHAR
STARTCHAR CHacek
ENCODING 47
SWIDTH 600 0
DWIDTH 10 0
BBX 8 11 1 0
BITMAP
42
24
18
00
3d
42
81
80
80
42
3c
ENDCHAR
STARTCHAR ScriptZero
ENCODING 48
SWIDTH 588 0
DWIDTH 9 0
BBX 7 9 1 0
BITMAP
1c
24
42
42
82
82
84
48
30
ENDCHAR
STARTCHAR ScriptOne
ENCODING 49
SWIDTH 600 0
DWIDTH 10 0
BBX 4 9 3 0
BITMAP
70
10
10
10
20
20
20
20
f0
ENDCHAR
STARTCHAR ScriptTwo
ENCODING 50
SWIDTH 588 0
DWIDTH 9 0
BBX 7 9 1 0
BITMAP
1c
22
02
04
0c
10
20
40
fc
ENDCHAR
STARTCHAR ScriptThree
ENCODING 51
SWIDTH 600 0
DWIDTH 10 0
BBX 6 9 2 0
BITMAP
38
44
04
0c
18
04
04
88
70
ENDCHAR
STARTCHAR ScriptFour
ENCODING 52
SWIDTH 600 0
DWIDTH 10 0
BBX 6 9 2 0
BITMAP
04
0c
14
24
44
88
fc
08
38
ENDCHAR
STARTCHAR ScriptFive
ENCODING 53
SWIDTH 600 0
DWIDTH 10 0
BBX 6 9 2 0
BITMAP
7c
40
40
78
44
04
04
88
f0
ENDCHAR
STARTCHAR ScriptSix
ENCODING 54
SWIDTH 548 0
DWIDTH 9 0
BBX 6 9 2 0
BITMAP
1c
20
20
40
70
c8
88
90
60
ENDCHAR
STARTCHAR ScriptSeven
ENCODING 55
SWIDTH 559 0
DWIDTH 9 0
BBX 6 9 2 0
BITMAP
fc
04
08
08
10
10
20
40
40
ENDCHAR
STARTCHAR ScriptEight
ENCODING 56
SWIDTH 548 0
DWIDTH 9 0
BBX 7 9 1 0
BITMAP
0c
16
22
24
18
64
84
c8
30
ENDCHAR
STARTCHAR ScriptNine
ENCODING 57
SWIDTH 548 0
DWIDTH 9 0
BBX 6 9 2 0
BITMAP
18
24
44
4c
34
08
08
10
e0
ENDCHAR
STARTCHAR ODoubleAcute
ENCODING 58
SWIDTH 600 0
DWIDTH 10 0
BBX 8 11 1 0
BITMAP
1b
24
2c
00
3c
42
81
81
81
42
3c
ENDCHAR
STARTCHAR CapitalODoubleAcute
ENCODING 59
SWIDTH 600 0
DWIDTH 10 0
BBX 8 13 1 0
BITMAP
1a
24
08
3c
66
42
81
81
81
81
42
66
3c
ENDCHAR
STARTCHAR SHacek
ENCODING 60
SWIDTH 600 0
DWIDTH 10 0
BBX 6 11 2 0
BITMAP
84
48
30
20
dc
84
80
7c
84
84
f8
ENDCHAR
STARTCHAR CapitalSHacek
ENCODING 61
SWIDTH 600 0
DWIDTH 10 0
BBX 7 13 2 0
BITMAP
44
28
10
30
4c
84
80
c0
38
06
82
84
f8
ENDCHAR
STARTCHAR UDoubleAcute
ENCODING 62
SWIDTH 600 0
DWIDTH 10 0
BBX 8 11 1 0
BITMAP
1b
14
2c
00
c6
42
42
42
42
46
3b
ENDCHAR
STARTCHAR CapitalUDoubleAcute
ENCODING 63
SWIDTH 600 0
DWIDTH 10 0
BBX 8 13 1 0
BITMAP
16
14
28
00
e7
42
42
42
42
42
42
24
18
ENDCHAR
STARTCHAR HSlash
ENCODING 64
SWIDTH 600 0
DWIDTH 10 0
BBX 8 10 0 0
BITMAP
30
10
7c
16
19
21
21
21
22
e7
ENDCHAR
STARTCHAR ScriptCapA
ENCODING 65
SWIDTH 600 0
DWIDTH 10 0
BBX 9 9 0 0
BITMAP
1f80
2280
4480
2500
1e80
0880
0880
9080
e080
ENDCHAR
STARTCHAR ScriptCapB
ENCODING 66
SWIDTH 600 0
DWIDTH 10 0
BBX 9 9 0 0
BITMAP
0f00
1480
2880
4980
2f00
0880
1080
2100
fe00
ENDCHAR
STARTCHAR ScriptCapC
ENCODING 67
SWIDTH 600 0
DWIDTH 10 0
BBX 8 10 1 -1
BITMAP
0e
31
21
40
80
80
81
82
46
38
ENDCHAR
STARTCHAR ScriptCapD
ENCODING 68
SWIDTH 600 0
DWIDTH 10 0
BBX 10 9 0 0
BITMAP
1f00
6880
8840
8840
1040
1040
3080
c100
be00
ENDCHAR
STARTCHAR ScriptCapE
ENCODING 69
SWIDTH 600 0
DWIDTH 10 0
BBX 8 9 1 0
BITMAP
1e
21
20
1c
60
81
81
81
7e
ENDCHAR
STARTCHAR ScriptCapF
ENCODING 70
SWIDTH 590 0
DWIDTH 9 0
BBX 11 10 -1 -1
BITMAP
1fe0
6400
8800
8800
5f00
1000
1000
1000
2000
c000
ENDCHAR
STARTCHAR ScriptCapG
ENCODING 71
SWIDTH 600 0
DWIDTH 10 0
BBX 9 11 0 -2
BITMAP
0f00
1880
2080
2000
4700
4d00
4200
6600
3a00
c400
7800
ENDCHAR
STARTCHAR ScriptCapH
ENCODING 72
SWIDTH 700 0
DWIDTH 11 0
BBX 12 10 0 0
BITMAP
1810
6820
8820
8820
8fc0
1840
1040
1040
2040
4040
ENDCHAR
STARTCHAR ScriptCapI
ENCODING 73
SWIDTH 600 0
DWIDTH 10 0
BBX 8 9 1 0
BITMAP
3f
04
08
08
08
10
10
20
f8
ENDCHAR
STARTCHAR ScriptCapJ
ENCODING 74
SWIDTH 600 0
DWIDTH 10 0
BBX 11 11 -1 -2
BITMAP
07e0
0880
1080
1100
0100
0100
0100
0100
8200
8400
7800
ENDCHAR
STARTCHAR ScriptCapK
ENCODING 75
SWIDTH 678 0
DWIDTH 11 0
BBX 12 9 -1 0
BITMAP
3c70
4480
8b00
8e00
0a00
1100
1100
1080
6080
ENDCHAR
STARTCHAR ScriptCapL
ENCODING 76
SWIDTH 638 0
DWIDTH 10 0
BBX 10 9 0 0
BITMAP
0380
0400
0400
0800
0800
0800
1000
e040
9f80
ENDCHAR
STARTCHAR ScriptCapM
ENCODING 77
SWIDTH 840 0
DWIDTH 13 0
BBX 14 9 0 0
BITMAP
0804
0c08
1418
1428
1248
2288
2308
4208
8004
ENDCHAR
STARTCHAR ScriptCapN
ENCODING 78
SWIDTH 662 0
DWIDTH 11 0
BBX 11 9 0 0
BITMAP
1020
1020
1840
2840
2480
2280
4180
4100
8080
ENDCHAR
STARTCHAR ScriptCapO
ENCODING 79
SWIDTH 600 0
DWIDTH 10 0
BBX 8 10 1 0
BITMAP
1c
22
41
41
81
81
82
82
4c
70
ENDCHAR
STARTCHAR ScriptCapP
ENCODING 80
SWIDTH 600 0
DWIDTH 10 0
BBX 9 9 0 0
BITMAP
1e00
7100
9080
9300
3c00
2000
2000
2000
4000
ENDCHAR
STARTCHAR ScriptCapQ
ENCODING 81
SWIDTH 600 0
DWIDTH 10 0
BBX 9 11 0 -1
BITMAP
0e00
3100
2080
4080
8080
8080
8100
b900
c600
7a80
0180
ENDCHAR
STARTCHAR ScriptCapR
ENCODING 82
SWIDTH 600 0
DWIDTH 10 0
BBX 8 9 1 0
BITMAP
7e
91
a1
a2
bc
28
44
42
83
ENDCHAR
STARTCHAR ScriptCapS
ENCODING 83
SWIDTH 600 0
DWIDTH 10 0
BBX 8 10 1 0
BITMAP
1e
33
21
20
18
04
02
82
c4
78
ENDCHAR
STARTCHAR ScriptCapT
ENCODING 84
SWIDTH 626 0
DWIDTH 10 0
BBX 11 9 -1 0
BITMAP
1c20
63c0
8400
8400
0800
0800
1000
1000
2000
ENDCHAR
STARTCHAR ScriptCapU
ENCODING 85
SWIDTH 728 0
DWIDTH 12 0
BBX 12 9 0 0
BITMAP
1c10
6420
8820
8840
4840
1080
1180
1680
0880
ENDCHAR
STARTCHAR ScriptCapV
ENCODING 86
SWIDTH 714 0
DWIDTH 11 0
BBX 11 9 0 0
BITMAP
1c20
6420
8420
8440
4480
0280
0300
0200
0200
ENDCHAR
STARTCHAR ScriptCapW
ENCODING 87
SWIDTH 983 0
DWIDTH 16 0
BBX 16 9 0 0
BITMAP
0c01
3441
c442
84c2
44a4
0328
0330
0220
0220
ENDCHAR
STARTCHAR ScriptCapX
ENCODING 88
SWIDTH 600 0
DWIDTH 10 0
BBX 9 10 0 0
BITMAP
1080
0880
0900
0e00
0800
1400
2400
4400
8200
8200
ENDCHAR
STARTCHAR ScriptCapY
ENCODING 89
SWIDTH 600 0
DWIDTH 10 0
BBX 10 11 0 -1
BITMAP
1040
0840
0880
0980
0980
0b00
0d00
0900
0200
8400
7800
ENDCHAR
STARTCHAR ScriptCapZ
ENCODING 90
SWIDTH 658 0
DWIDTH 11 0
BBX 11 10 0 -1
BITMAP
1f60
6080
0100
0100
0200
0400
0800
1000
f820
07c0
ENDCHAR
STARTCHAR RightTriangleLeft
ENCODING 91
SWIDTH 600 0
DWIDTH 10 0
BBX 6 9 2 0
BITMAP
04
08
08
18
38
28
68
48
f8
ENDCHAR
STARTCHAR RightTriangleRight
ENCODING 92
SWIDTH 600 0
DWIDTH 10 0
BBX 5 9 2 0
BITMAP
80
80
c0
a0
a0
90
98
88
f8
ENDCHAR
STARTCHAR DoubleRightTriangle
ENCODING 93
SWIDTH 600 0
DWIDTH 10 0
BBX 9 9 1 0
BITMAP
0800
1800
1c00
3a00
3a00
5b00
5900
9980
ff00
ENDCHAR
STARTCHAR Female
ENCODING 94
SWIDTH 600 0
DWIDTH 10 0
BBX 6 9 2 0
BITMAP
70
48
84
84
88
70
20
78
20
ENDCHAR
STARTCHAR Male
ENCODING 95
SWIDTH 600 0
DWIDTH 10 0
BBX 9 9 1 0
BITMAP
0180
0180
3a00
4400
8200
8200
8200
4400
3800
ENDCHAR
STARTCHAR NearlyEquals
ENCODING 96
SWIDTH 600 0
DWIDTH 10 0
BBX 6 9 2 -1
BITMAP
40
00
00
fc
00
fc
00
00
08
ENDCHAR
STARTCHAR ScriptA
ENCODING 97
SWIDTH 432 0
DWIDTH 7 0
BBX 7 7 0 0
BITMAP
3c
44
48
88
88
be
c8
ENDCHAR
STARTCHAR ScriptB
ENCODING 98
SWIDTH 444 0
DWIDTH 7 0
BBX 7 10 0 0
BITMAP
10
10
10
2e
32
32
22
44
48
f0
ENDCHAR
STARTCHAR ScriptC
ENCODING 99
SWIDTH 384 0
DWIDTH 6 0
BBX 7 7 0 0
BITMAP
1c
22
40
80
80
88
70
ENDCHAR
STARTCHAR ScriptD
ENCODING 100
SWIDTH 507 0
DWIDTH 8 0
BBX 8 11 0 0
BITMAP
01
01
02
02
3e
64
44
8c
98
a8
48
ENDCHAR
STARTCHAR ScriptE
ENCODING 101
SWIDTH 365 0
DWIDTH 6 0
BBX 6 7 0 0
BITMAP
18
64
48
f0
80
88
70
ENDCHAR
STARTCHAR ScriptF
ENCODING 102
SWIDTH 476 0
DWIDTH 8 0
BBX 7 13 1 -2
BITMAP
06
08
10
10
10
78
20
20
40
40
80
80
80
ENDCHAR
STARTCHAR ScriptG
ENCODING 103
SWIDTH 489 0
DWIDTH 8 0
BBX 7 10 0 -3
BITMAP
0e
12
22
46
4a
54
24
08
10
e0
ENDCHAR
STARTCHAR ScriptH
ENCODING 104
SWIDTH 421 0
DWIDTH 7 0
BBX 6 10 0 0
BITMAP
20
20
20
2c
34
64
44
44
48
84
ENDCHAR
STARTCHAR ScriptI
ENCODING 105
SWIDTH 222 0
DWIDTH 4 0
BBX 4 10 0 0
BITMAP
10
30
00
20
40
40
40
80
80
80
ENDCHAR
STARTCHAR ScriptJ
ENCODING 106
SWIDTH 440 0
DWIDTH 7 0
BBX 7 13 1 -3
BITMAP
02
04
00
04
04
08
08
08
08
10
10
20
c0
ENDCHAR
STARTCHAR ScriptK
ENCODING 107
SWIDTH 396 0
DWIDTH 6 0
BBX 6 10 1 0
BITMAP
20
20
20
24
48
70
60
a0
90
90
ENDCHAR
STARTCHAR ScriptL
ENCODING 108
SWIDTH 221 0
DWIDTH 4 0
BBX 3 10 1 0
BITMAP
20
20
40
40
40
40
80
80
80
80
ENDCHAR
STARTCHAR ScriptM
ENCODING 109
SWIDTH 665 0
DWIDTH 11 0
BBX 9 7 1 0
BITMAP
5980
6a80
4c80
8880
8900
9100
9100
ENDCHAR
STARTCHAR ScriptN
ENCODING 110
SWIDTH 419 0
DWIDTH 7 0
BBX 5 7 1 0
BITMAP
58
68
48
88
90
90
90
ENDCHAR
STARTCHAR ScriptO
ENCODING 111
SWIDTH 398 0
DWIDTH 6 0
BBX 6 7 0 0
BITMAP
38
64
44
84
88
90
60
ENDCHAR
STARTCHAR ScriptP
ENCODING 112
SWIDTH 467 0
DWIDTH 7 0
BBX 7 11 0 -3
BITMAP
20
26
3a
22
22
44
48
f0
40
40
80
ENDCHAR
STARTCHAR ScriptQ
ENCODING 113
SWIDTH 442 0
DWIDTH 7 0
BBX 7 10 0 -3
BITMAP
1c
22
42
44
8c
94
e4
04
08
08
ENDCHAR
STARTCHAR ScriptR
ENCODING 114
SWIDTH 368 0
DWIDTH 6 0
BBX 5 7 1 0
BITMAP
40
58
60
40
80
80
80
ENDCHAR
STARTCHAR ScriptS
ENCODING 115
SWIDTH 428 0
DWIDTH 7 0
BBX 6 7 1 0
BITMAP
38
44
40
30
08
98
f0
ENDCHAR
STARTCHAR ScriptT
ENCODING 116
SWIDTH 267 0
DWIDTH 4 0
BBX 4 9 0 0
BITMAP
20
20
f0
40
40
80
80
a0
c0
ENDCHAR
STARTCHAR ScriptU
ENCODING 117
SWIDTH 423 0
DWIDTH 7 0
BBX 7 7 0 0
BITMAP
22
22
44
4c
98
a8
48
ENDCHAR
STARTCHAR ScriptV
ENCODING 118
SWIDTH 366 0
DWIDTH 6 0
BBX 5 7 1 0
BITMAP
88
88
90
90
a0
a0
c0
ENDCHAR
STARTCHAR ScriptW
ENCODING 119
SWIDTH 582 0
DWIDTH 9 0
BBX 8 7 1 0
BITMAP
91
91
9a
aa
ac
cc
88
ENDCHAR
STARTCHAR ScriptX
ENCODING 120
SWIDTH 494 0
DWIDTH 8 0
BBX 8 7 1 0
BITMAP
21
12
1c
10
68
88
84
ENDCHAR
STARTCHAR ScriptY
ENCODING 121
SWIDTH 455 0
DWIDTH 7 0
BBX 8 10 0 -3
BITMAP
21
22
22
26
4a
52
64
04
18
e0
ENDCHAR
STARTCHAR ScriptZ
ENCODING 122
SWIDTH 471 0
DWIDTH 8 0
BBX 7 7 1 0
BITMAP
22
7c
08
10
20
c0
bc
ENDCHAR
STARTCHAR ScriptAltL
ENCODING 123
SWIDTH 385 0
DWIDTH 6 0
BBX 6 10 0 0
BITMAP
0c
14
14
28
30
20
c0
40
40
40
ENDCHAR
STARTCHAR LogicalNand
ENCODING 124
SWIDTH 600 0
DWIDTH 10 0
BBX 8 9 1 0
BITMAP
ff
00
3c
24
42
42
41
81
81
ENDCHAR
STARTCHAR Nand2
ENCODING 125
SWIDTH 741 0
DWIDTH 12 0
BBX 11 14 1 -3
BITMAP
ffc0
0000
0000
1e00
2100
2100
2100
2080
4080
4080
4040
8040
8040
8020
ENDCHAR
STARTCHAR Nand3
ENCODING 126
SWIDTH 1215 0
DWIDTH 19 0
BBX 19 25 1 -8
BITMAP
ffff80
000000
000000
000000
000000
000000
07f000
040800
040800
080400
080400
080400
100200
100200
100200
200100
200100
200100
200080
400080
400080
400040
800040
800040
800020
ENDCHAR
STARTCHAR DEL
ENCODING 127
SWIDTH 263 0
DWIDTH 4 0
BBX 0 0 0 0
BITMAP
ENDCHAR
STARTCHAR LogicalNor
ENCODING 128
SWIDTH 600 0
DWIDTH 10 0
BBX 9 9 1 0
BITMAP
ff00
0000
8080
8100
4100
4200
4200
2200
3c00
ENDCHAR
STARTCHAR Nor2
ENCODING 129
SWIDTH 741 0
DWIDTH 12 0
BBX 11 14 1 -3
BITMAP
ffc0
0000
0000
8020
8040
8040
4040
4080
4080
2080
2100
2100
1100
1e00
ENDCHAR
STARTCHAR Nor3
ENCODING 130
SWIDTH 1215 0
DWIDTH 19 0
BBX 18 25 1 -8
BITMAP
7fffc0
000000
000000
000000
000000
000000
800040
800040
400040
400040
400080
400080
200080
200100
200100
100100
100200
100200
080200
080200
080400
040400
040400
040800
03f800
ENDCHAR
STARTCHAR LogicalXor
ENCODING 131
SWIDTH 600 0
DWIDTH 10 0
BBX 8 9 1 0
BITMAP
81
81
41
42
42
22
3c
00
ff
ENDCHAR
STARTCHAR Xor2
ENCODING 132
SWIDTH 741 0
DWIDTH 12 0
BBX 11 14 1 -3
BITMAP
8020
8040
8040
4040
4080
4080
2080
2100
2100
1100
1e00
0000
0000
ffc0
ENDCHAR
STARTCHAR Xor3
ENCODING 133
SWIDTH 1215 0
DWIDTH 19 0
BBX 19 25 1 -8
BITMAP
800020
800040
800040
400040
400080
400080
200080
200080
200100
100100
100100
100200
100200
080200
080200
080400
040400
040400
040800
03f800
000000
000000
000000
000000
7fffc0
ENDCHAR
STARTCHAR ConstantC
ENCODING 134
SWIDTH 600 0
DWIDTH 10 0
BBX 8 7 1 0
BITMAP
3e
51
a0
a0
a0
50
3f
ENDCHAR
STARTCHAR LongEqual
ENCODING 135
SWIDTH 798 0
DWIDTH 13 0
BBX 9 3 2 2
BITMAP
ff80
0000
ff80
ENDCHAR
STARTCHAR Diffd2
ENCODING 136
SWIDTH 600 0
DWIDTH 10 0
BBX 8 10 2 0
BITMAP
0f
01
01
39
46
82
82
86
8c
77
ENDCHAR
STARTCHAR Expe2
ENCODING 137
SWIDTH 600 0
DWIDTH 10 0
BBX 8 7 2 0
BITMAP
3c
42
81
ff
80
82
7c
ENDCHAR
STARTCHAR Imagi2
ENCODING 138
SWIDTH 600 0
DWIDTH 10 0
BBX 7 11 1 0
BITMAP
04
04
00
00
3c
08
08
08
08
10
fe
ENDCHAR
STARTCHAR Imagj2
ENCODING 139
SWIDTH 600 0
DWIDTH 10 0
BBX 8 14 1 -3
BITMAP
01
03
00
00
3e
02
02
02
02
04
04
04
08
f0
ENDCHAR
STARTCHAR CapitalCAcute
ENCODING 140
SWIDTH 600 0
DWIDTH 10 0
BBX 8 12 1 0
BITMAP
0c
18
1d
63
41
81
80
80
80
40
63
3c
ENDCHAR
STARTCHAR CapitalCHacek
ENCODING 141
SWIDTH 600 0
DWIDTH 10 0
BBX 8 13 1 0
BITMAP
22
14
08
1d
63
41
81
80
80
80
40
63
3c
ENDCHAR
STARTCHAR EBar
ENCODING 142
SWIDTH 600 0
DWIDTH 10 0
BBX 8 9 1 0
BITMAP
7e
00
3c
42
81
ff
80
41
3e
ENDCHAR
STARTCHAR ECup
ENCODING 143
SWIDTH 600 0
DWIDTH 10 0
BBX 8 10 1 0
BITMAP
24
3c
00
3c
42
81
ff
80
41
3e
ENDCHAR
STARTCHAR CapitalEBar
ENCODING 144
SWIDTH 600 0
DWIDTH 10 0
BBX 8 11 1 0
BITMAP
7e
00
ff
41
41
44
7c
44
41
41
ff
ENDCHAR
STARTCHAR CapitalECup
ENCODING 145
SWIDTH 600 0
DWIDTH 10 0
BBX 8 12 1 0
BITMAP
42
3c
00
ff
41
41
44
7c
44
41
41
ff
ENDCHAR
STARTCHAR ICup
ENCODING 146
SWIDTH 600 0
DWIDTH 10 0
BBX 7 10 2 0
BITMAP
44
38
00
f0
10
10
10
10
10
fe
ENDCHAR
STARTCHAR CapitalICup
ENCODING 147
SWIDTH 600 0
DWIDTH 10 0
BBX 7 12 2 0
BITMAP
44
78
00
fe
10
10
10
10
10
10
10
fe
ENDCHAR
STARTCHAR LSlash
ENCODING 148
SWIDTH 600 0
DWIDTH 10 0
BBX 7 10 2 0
BITMAP
f0
10
10
12
1c
30
d0
10
10
fe
ENDCHAR
STARTCHAR CapitalLSlash
ENCODING 149
SWIDTH 600 0
DWIDTH 10 0
BBX 9 9 0 0
BITMAP
f800
2000
2000
2800
3000
e080
2080
2080
ff80
ENDCHAR
STARTCHAR Mercury
ENCODING 150
SWIDTH 600 0
DWIDTH 10 0
BBX 5 9 3 0
BITMAP
90
90
f0
88
90
f0
20
f0
20
ENDCHAR
STARTCHAR Venus
ENCODING 151
SWIDTH 600 0
DWIDTH 10 0
BBX 6 9 2 0
BITMAP
70
88
84
84
88
50
20
70
20
ENDCHAR
STARTCHAR Earth
ENCODING 152
SWIDTH 600 0
DWIDTH 10 0
BBX 6 9 2 0
BITMAP
20
70
20
50
88
84
84
88
70
ENDCHAR
STARTCHAR Mars
ENCODING 153
SWIDTH 600 0
DWIDTH 10 0
BBX 8 8 1 0
BITMAP
0e
25
59
84
84
84
88
70
ENDCHAR
STARTCHAR Jupiter
ENCODING 154
SWIDTH 600 0
DWIDTH 10 0
BBX 8 11 1 -2
BITMAP
01
79
85
85
85
05
05
09
71
9f
01
ENDCHAR
STARTCHAR Saturn
ENCODING 155
SWIDTH 600 0
DWIDTH 10 0
BBX 7 9 2 0
BITMAP
80
e0
80
bc
c4
82
84
84
88
ENDCHAR
STARTCHAR Uranus
ENCODING 156
SWIDTH 600 0
DWIDTH 10 0
BBX 7 9 1 0
BITMAP
d2
52
7c
52
52
d2
10
28
38
ENDCHAR
STARTCHAR Neptune
ENCODING 157
SWIDTH 600 0
DWIDTH 10 0
BBX 10 11 1 -2
BITMAP
1c00
1a00
eb80
db40
4900
4900
2a00
1c00
0800
3e00
0800
ENDCHAR
STARTCHAR Pluto
ENCODING 158
SWIDTH 600 0
DWIDTH 10 0
BBX 7 11 2 -2
BITMAP
f8
84
82
82
84
84
f8
80
80
80
fc
ENDCHAR
STARTCHAR udieresis
ENCODING 159
SWIDTH 600 0
DWIDTH 10 0
BBX 9 9 0 0
BITMAP
1c00
6300
4100
8080
8880
8080
4100
6300
1c00
ENDCHAR
STARTCHAR FirstPage
ENCODING 160
SWIDTH 600 0
DWIDTH 10 0
BBX 5 7 3 0
BITMAP
88
98
b8
f8
b8
98
88
ENDCHAR
STARTCHAR LastPage
ENCODING 161
SWIDTH 600 0
DWIDTH 10 0
BBX 5 7 3 0
BITMAP
88
c8
e8
f8
e8
c8
88
ENDCHAR
STARTCHAR SolidLeftTriangle
ENCODING 162
SWIDTH 600 0
DWIDTH 10 0
BBX 8 9 1 0
BITMAP
01
07
0f
3f
ff
3f
0f
07
01
ENDCHAR
STARTCHAR SolidRightTriangle
ENCODING 163
SWIDTH 600 0
DWIDTH 10 0
BBX 8 9 1 0
BITMAP
80
e0
f0
fc
ff
fc
f0
e0
80
ENDCHAR
STARTCHAR QuarterNote
ENCODING 164
SWIDTH 600 0
DWIDTH 10 0
BBX 4 10 3 0
BITMAP
10
10
10
10
10
10
10
f0
f0
e0
ENDCHAR
STARTCHAR EighthNote
ENCODING 165
SWIDTH 600 0
DWIDTH 10 0
BBX 8 10 1 0
BITMAP
10
1c
12
11
10
10
10
10
f0
e0
ENDCHAR
STARTCHAR BeamedEighthNote
ENCODING 166
SWIDTH 700 0
DWIDTH 11 0
BBX 11 10 0 0
BITMAP
0fe0
0820
0820
0820
0820
0820
0820
0820
f9e0
73c0
ENDCHAR
STARTCHAR BeamedSixteenthNote
ENCODING 167
SWIDTH 700 0
DWIDTH 11 0
BBX 11 10 0 0
BITMAP
0fe0
0820
0fe0
0820
0820
0820
0820
0820
f9e0
73c0
ENDCHAR
STARTCHAR EntityStart
ENCODING 168
SWIDTH 700 0
DWIDTH 11 0
BBX 11 12 0 -2
BITMAP
ffe0
8080
9880
a080
9080
9280
ac80
a480
ae80
9080
8080
ffe0
ENDCHAR
STARTCHAR EntityEnd
ENCODING 169
SWIDTH 700 0
DWIDTH 11 0
BBX 11 12 0 -2
BITMAP
ffe0
2020
2020
2020
2020
2020
2620
2020
2420
2420
2020
ffe0
ENDCHAR
STARTCHAR trademark
ENCODING 170
SWIDTH 600 0
DWIDTH 10 0
BBX 7 8 3 2
BITMAP
02
04
04
08
90
a0
e0
60
ENDCHAR
STARTCHAR acute
ENCODING 171
SWIDTH 600 0
DWIDTH 10 0
BBX 10 10 0 0
BITMAP
0040
ff80
8180
8280
8280
b480
9880
8880
8080
ff80
ENDCHAR
STARTCHAR dieresis
ENCODING 172
SWIDTH 364 0
DWIDTH 6 0
BBX 5 5 0 6
BITMAP
f8
20
20
20
20
ENDCHAR
STARTCHAR notequal
ENCODING 173
SWIDTH 364 0
DWIDTH 6 0
BBX 5 5 0 6
BITMAP
20
f8
30
f8
20
ENDCHAR
STARTCHAR AE
ENCODING 174
SWIDTH 364 0
DWIDTH 6 0
BBX 4 5 1 6
BITMAP
90
90
f0
90
90
ENDCHAR
STARTCHAR Oslash
ENCODING 175
SWIDTH 600 0
DWIDTH 10 0
BBX 4 10 5 0
BITMAP
f0
80
80
80
80
80
80
80
80
80
ENDCHAR
STARTCHAR infinity
ENCODING 176
SWIDTH 600 0
DWIDTH 10 0
BBX 2 11 3 -2
BITMAP
40
40
40
40
c0
80
c0
40
40
40
40
ENDCHAR
STARTCHAR plusminus
ENCODING 177
SWIDTH 600 0
DWIDTH 10 0
BBX 4 11 5 0
BITMAP
80
80
80
80
80
80
80
80
80
80
f0
ENDCHAR
STARTCHAR lessequal
ENCODING 178
SWIDTH 600 0
DWIDTH 10 0
BBX 1 5 5 0
BITMAP
80
80
80
80
80
ENDCHAR
STARTCHAR greaterequal
ENCODING 179
SWIDTH 600 0
DWIDTH 10 0
BBX 4 13 3 -3
BITMAP
70
40
40
40
40
c0
80
c0
40
40
40
40
70
ENDCHAR
STARTCHAR yen
ENCODING 180
SWIDTH 600 0
DWIDTH 10 0
BBX 4 21 3 -7
BITMAP
70
40
40
40
40
40
40
40
40
c0
80
c0
40
40
40
40
40
40
40
40
70
ENDCHAR
STARTCHAR mu
ENCODING 181
SWIDTH 600 0
DWIDTH 10 0
BBX 5 27 3 -10
BITMAP
78
40
40
40
40
40
40
40
40
40
40
40
c0
80
c0
40
40
40
40
40
40
40
40
40
40
40
78
ENDCHAR
STARTCHAR partialdiff
ENCODING 182
SWIDTH 600 0
DWIDTH 10 0
BBX 5 33 3 -13
BITMAP
78
40
40
40
40
40
40
40
40
40
40
40
40
40
40
c0
80
c0
40
40
40
40
40
40
40
40
40
40
40
40
40
40
78
ENDCHAR
STARTCHAR summation
ENCODING 183
SWIDTH 720 0
DWIDTH 12 0
BBX 10 7 1 0
BITMAP
1000
2000
4000
fb40
4000
2000
1000
ENDCHAR
STARTCHAR product
ENCODING 184
SWIDTH 600 0
DWIDTH 10 0
BBX 7 10 2 0
BITMAP
10
38
54
92
10
00
10
10
00
10
ENDCHAR
STARTCHAR pi
ENCODING 185
SWIDTH 720 0
DWIDTH 12 0
BBX 9 7 1 0
BITMAP
0200
0100
0080
b780
0080
0100
0200
ENDCHAR
STARTCHAR integral
ENCODING 186
SWIDTH 600 0
DWIDTH 10 0
BBX 7 10 2 0
BITMAP
10
00
10
10
00
10
92
54
38
10
ENDCHAR
STARTCHAR ordfeminine
ENCODING 187
SWIDTH 900 0
DWIDTH 14 0
BBX 12 6 1 1
BITMAP
fff0
8010
8010
a230
8010
fff0
ENDCHAR
STARTCHAR ordmasculine
ENCODING 188
SWIDTH 900 0
DWIDTH 14 0
BBX 6 12 4 -2
BITMAP
fc
84
94
84
84
84
94
84
84
94
84
fc
ENDCHAR
STARTCHAR Omega
ENCODING 189
SWIDTH 900 0
DWIDTH 14 0
BBX 12 12 1 -2
BITMAP
f000
8800
8400
da00
6100
2080
1740
0800
0420
02d0
0100
0080
ENDCHAR
STARTCHAR ae
ENCODING 190
SWIDTH 364 0
DWIDTH 6 0
BBX 3 6 1 5
BITMAP
40
e0
40
40
40
40
ENDCHAR
STARTCHAR oslash
ENCODING 191
SWIDTH 263 0
DWIDTH 4 0
BBX 0 0 0 0
BITMAP
ENDCHAR
STARTCHAR questiondown
ENCODING 192
SWIDTH 263 0
DWIDTH 4 0
BBX 0 0 0 0
BITMAP
ENDCHAR
STARTCHAR exclamdown
ENCODING 193
SWIDTH 263 0
DWIDTH 4 0
BBX 0 0 0 0
BITMAP
ENDCHAR
STARTCHAR logicalnot
ENCODING 194
SWIDTH 263 0
DWIDTH 4 0
BBX 0 0 0 0
BITMAP
ENDCHAR
STARTCHAR radical
ENCODING 195
SWIDTH 263 0
DWIDTH 4 0
BBX 0 0 0 0
BITMAP
ENDCHAR
STARTCHAR florin
ENCODING 196
SWIDTH 263 0
DWIDTH 4 0
BBX 0 0 0 0
BITMAP
ENDCHAR
STARTCHAR approxequal
ENCODING 197
SWIDTH 263 0
DWIDTH 4 0
BBX 0 0 0 0
BITMAP
ENDCHAR
STARTCHAR Delta
ENCODING 198
SWIDTH 263 0
DWIDTH 4 0
BBX 0 0 0 0
BITMAP
ENDCHAR
STARTCHAR guillemotleft
ENCODING 199
SWIDTH 263 0
DWIDTH 4 0
BBX 0 0 0 0
BITMAP
ENDCHAR
STARTCHAR guillemotright
ENCODING 200
SWIDTH 263 0
DWIDTH 4 0
BBX 0 0 0 0
BITMAP
ENDCHAR
STARTCHAR ellipsis
ENCODING 201
SWIDTH 263 0
DWIDTH 4 0
BBX 0 0 0 0
BITMAP
ENDCHAR
STARTCHAR nbspace
ENCODING 202
SWIDTH 263 0
DWIDTH 4 0
BBX 0 0 0 0
BITMAP
ENDCHAR
STARTCHAR Agrave
ENCODING 203
SWIDTH 263 0
DWIDTH 4 0
BBX 0 0 0 0
BITMAP
ENDCHAR
STARTCHAR Atilde
ENCODING 204
SWIDTH 263 0
DWIDTH 4 0
BBX 0 0 0 0
BITMAP
ENDCHAR
STARTCHAR Otilde
ENCODING 205
SWIDTH 263 0
DWIDTH 4 0
BBX 0 0 0 0
BITMAP
ENDCHAR
STARTCHAR parenright
ENCODING 206
SWIDTH 263 0
DWIDTH 4 0
BBX 0 0 0 0
BITMAP
ENDCHAR
STARTCHAR oe
ENCODING 207
SWIDTH 263 0
DWIDTH 4 0
BBX 0 0 0 0
BITMAP
ENDCHAR
STARTCHAR endash
ENCODING 208
SWIDTH 263 0
DWIDTH 4 0
BBX 0 0 0 0
BITMAP
ENDCHAR
STARTCHAR emdash
ENCODING 209
SWIDTH 263 0
DWIDTH 4 0
BBX 0 0 0 0
BITMAP
ENDCHAR
STARTCHAR quotedblleft
ENCODING 210
SWIDTH 263 0
DWIDTH 4 0
BBX 0 0 0 0
BITMAP
ENDCHAR
STARTCHAR quotedblright
ENCODING 211
SWIDTH 263 0
DWIDTH 4 0
BBX 0 0 0 0
BITMAP
ENDCHAR
STARTCHAR quoteleft
ENCODING 212
SWIDTH 263 0
DWIDTH 4 0
BBX 0 0 0 0
BITMAP
ENDCHAR
STARTCHAR quoteright
ENCODING 213
SWIDTH 263 0
DWIDTH 4 0
BBX 0 0 0 0
BITMAP
ENDCHAR
STARTCHAR divide
ENCODING 214
SWIDTH 263 0
DWIDTH 4 0
BBX 0 0 0 0
BITMAP
ENDCHAR
STARTCHAR lozenge
ENCODING 215
SWIDTH 263 0
DWIDTH 4 0
BBX 0 0 0 0
BITMAP
ENDCHAR
STARTCHAR ydieresis
ENCODING 216
SWIDTH 263 0
DWIDTH 4 0
BBX 0 0 0 0
BITMAP
ENDCHAR
STARTCHAR Ydieresis
ENCODING 217
SWIDTH 263 0
DWIDTH 4 0
BBX 0 0 0 0
BITMAP
ENDCHAR
STARTCHAR fraction
ENCODING 218
SWIDTH 263 0
DWIDTH 4 0
BBX 0 0 0 0
BITMAP
ENDCHAR
STARTCHAR currency
ENCODING 219
SWIDTH 263 0
DWIDTH 4 0
BBX 0 0 0 0
BITMAP
ENDCHAR
STARTCHAR guilsinglleft
ENCODING 220
SWIDTH 263 0
DWIDTH 4 0
BBX 0 0 0 0
BITMAP
ENDCHAR
STARTCHAR guilsinglright
ENCODING 221
SWIDTH 263 0
DWIDTH 4 0
BBX 0 0 0 0
BITMAP
ENDCHAR
STARTCHAR fi
ENCODING 222
SWIDTH 263 0
DWIDTH 4 0
BBX 0 0 0 0
BITMAP
ENDCHAR
STARTCHAR fl
ENCODING 223
SWIDTH 263 0
DWIDTH 4 0
BBX 0 0 0 0
BITMAP
ENDCHAR
STARTCHAR daggerdbl
ENCODING 224
SWIDTH 263 0
DWIDTH 4 0
BBX 0 0 0 0
BITMAP
ENDCHAR
STARTCHAR periodcentered
ENCODING 225
SWIDTH 263 0
DWIDTH 4 0
BBX 0 0 0 0
BITMAP
ENDCHAR
STARTCHAR quotesinglbase
ENCODING 226
SWIDTH 263 0
DWIDTH 4 0
BBX 0 0 0 0
BITMAP
ENDCHAR
STARTCHAR quotedblbase
ENCODING 227
SWIDTH 263 0
DWIDTH 4 0
BBX 0 0 0 0
BITMAP
ENDCHAR
STARTCHAR perthousand
ENCODING 228
SWIDTH 263 0
DWIDTH 4 0
BBX 0 0 0 0
BITMAP
ENDCHAR
STARTCHAR Acircumflex
ENCODING 229
SWIDTH 263 0
DWIDTH 4 0
BBX 0 0 0 0
BITMAP
ENDCHAR
STARTCHAR Ecircumflex
ENCODING 230
SWIDTH 263 0
DWIDTH 4 0
BBX 0 0 0 0
BITMAP
ENDCHAR
STARTCHAR Aacute
ENCODING 231
SWIDTH 263 0
DWIDTH 4 0
BBX 0 0 0 0
BITMAP
ENDCHAR
STARTCHAR Edieresis
ENCODING 232
SWIDTH 263 0
DWIDTH 4 0
BBX 0 0 0 0
BITMAP
ENDCHAR
STARTCHAR Egrave
ENCODING 233
SWIDTH 263 0
DWIDTH 4 0
BBX 0 0 0 0
BITMAP
ENDCHAR
STARTCHAR Iacute
ENCODING 234
SWIDTH 263 0
DWIDTH 4 0
BBX 0 0 0 0
BITMAP
ENDCHAR
STARTCHAR Icircumflex
ENCODING 235
SWIDTH 263 0
DWIDTH 4 0
BBX 0 0 0 0
BITMAP
ENDCHAR
STARTCHAR Idieresis
ENCODING 236
SWIDTH 263 0
DWIDTH 4 0
BBX 0 0 0 0
BITMAP
ENDCHAR
STARTCHAR Igrave
ENCODING 237
SWIDTH 263 0
DWIDTH 4 0
BBX 0 0 0 0
BITMAP
ENDCHAR
STARTCHAR Oacute
ENCODING 238
SWIDTH 263 0
DWIDTH 4 0
BBX 0 0 0 0
BITMAP
ENDCHAR
STARTCHAR Ocircumflex
ENCODING 239
SWIDTH 263 0
DWIDTH 4 0
BBX 0 0 0 0
BITMAP
ENDCHAR
STARTCHAR apple
ENCODING 240
SWIDTH 263 0
DWIDTH 4 0
BBX 0 0 0 0
BITMAP
ENDCHAR
STARTCHAR Ograve
ENCODING 241
SWIDTH 263 0
DWIDTH 4 0
BBX 0 0 0 0
BITMAP
ENDCHAR
STARTCHAR Uacute
ENCODING 242
SWIDTH 263 0
DWIDTH 4 0
BBX 0 0 0 0
BITMAP
ENDCHAR
STARTCHAR Ucircumflex
ENCODING 243
SWIDTH 263 0
DWIDTH 4 0
BBX 0 0 0 0
BITMAP
ENDCHAR
STARTCHAR Ugrave
ENCODING 244
SWIDTH 263 0
DWIDTH 4 0
BBX 0 0 0 0
BITMAP
ENDCHAR
STARTCHAR dotlessi
ENCODING 245
SWIDTH 263 0
DWIDTH 4 0
BBX 0 0 0 0
BITMAP
ENDCHAR
STARTCHAR circumflex
ENCODING 246
SWIDTH 263 0
DWIDTH 4 0
BBX 0 0 0 0
BITMAP
ENDCHAR
STARTCHAR CurlyQuote
ENCODING 247
SWIDTH 600 0
DWIDTH 10 0
BBX 2 4 3 5
BITMAP
c0
c0
40
80
ENDCHAR
STARTCHAR CurlyDblQuote
ENCODING 248
SWIDTH 600 0
DWIDTH 10 0
BBX 5 4 2 5
BITMAP
d8
d8
48
90
ENDCHAR
STARTCHAR CurlyBackQuote
ENCODING 249
SWIDTH 600 0
DWIDTH 10 0
BBX 2 4 5 5
BITMAP
40
80
c0
c0
ENDCHAR
STARTCHAR CurlyDblBackQuote
ENCODING 250
SWIDTH 600 0
DWIDTH 10 0
BBX 4 4 3 5
BITMAP
50
a0
f0
f0
ENDCHAR
STARTCHAR StrikeCircle
ENCODING 251
SWIDTH 600 0
DWIDTH 10 0
BBX 9 9 0 0
BITMAP
1c00
6300
4100
8080
8080
8080
4100
6300
1c00
ENDCHAR
STARTCHAR StrikeSquare
ENCODING 252
SWIDTH 600 0
DWIDTH 10 0
BBX 9 9 0 0
BITMAP
ff80
8080
8080
8080
8080
8080
8080
8080
ff80
ENDCHAR
STARTCHAR StrikeTriangle
ENCODING 253
SWIDTH 600 0
DWIDTH 10 0
BBX 8 9 1 0
BITMAP
08
18
14
24
22
42
41
81
ff
ENDCHAR
STARTCHAR MathLogo1
ENCODING 254
SWIDTH 2776 0
DWIDTH 44 0
BBX 45 11 1 0
BITMAP
381800000000
183008200000
08304ffe7bf0
1850c9942108
1c50e1042100
3cb161082120
24b1630fe3c0
2523e3084220
462222084200
442432184210
e2fe7fbdefe0
ENDCHAR
STARTCHAR MathLogo2
ENCODING 255
SWIDTH 2981 0
DWIDTH 48 0
BBX 47 10 0 0
BITMAP
000008200004
30708fef3c2a
18619124626e
18e18104c164
28c283048060
2942820500b0
2b47c20900f0
4e4442090110
444842098510
e5fcef3cfb38
ENDCHAR
ENDFONT
